<svg xmlns="http://www.w3.org/2000/svg" width="210mm" height="210mm" viewBox="0 0 210 210">
  <path d="M93.25 270.967c-4.765-4.766-8.664-8.823-8.664-9.016 0-.192 4.227-4.55 9.393-9.685 5.166-5.134 9.393-9.5 9.393-9.704 0-.203-4.941-5.309-10.98-11.347-6.04-6.037-10.98-11.156-10.98-11.374 0-.435 17.162-17.73 17.593-17.73.452 0 40.423 40.131 40.31 40.47-.161.483-36.799 37.053-37.122 37.053-.154 0-4.178-3.9-8.943-8.667zm-17.173-56.113c-.85-.85-1.545-1.657-1.545-1.794s.77-1.012 1.713-1.946l1.712-1.697 1.779 1.778 1.778 1.779-1.697 1.712c-.934.942-1.81 1.713-1.946 1.713-.137 0-.944-.696-1.794-1.545zm10.639-12.874c-1.608-1.585-2.923-3.064-2.923-3.289 0-.531 5.29-5.84 5.82-5.84.224 0 1.713 1.31 3.31 2.912l2.902 2.912-3.093 3.093-3.093 3.093zm-13.58-4.836c-1.124-1.13-2.043-2.175-2.043-2.32 0-.346 4.03-4.354 4.377-4.354.345 0 4.354 4.03 4.354 4.377 0 .345-4.031 4.354-4.378 4.354-.146 0-1.185-.926-2.31-2.057zm4.063-.303c-132.844-76.606-66.422-38.303 0 0zm-21.126-1.944c-1.49-1.494-2.708-2.895-2.708-3.114 0-.416 5.526-6.076 5.932-6.076.22 0 4.872 4.614 5.68 5.631.329.415.078.753-2.499 3.368-1.575 1.6-3.052 2.907-3.281 2.907-.23 0-1.635-1.222-3.124-2.716zm19.538-9.302-1.685-1.7 1.534-1.607c.844-.884 1.728-1.608 1.965-1.608.237 0 1.124.7 1.97 1.556 1.3 1.312 1.498 1.634 1.27 2.061-.324.603-2.841 2.998-3.153 2.998-.12 0-.975-.765-1.901-1.7z" style="fill:#018ddd;fill-opacity:1;stroke:none;stroke-width:.264583;stroke-opacity:1" transform="matrix(1.53056 0 0 1.53056 -4.266 -265.54)"/>
  <path d="m63.476 301.602-1.306-1.327 1.379-1.378 1.378-1.379 1.195 1.173c.657.645 1.194 1.37 1.194 1.612 0 .35-2.124 2.625-2.451 2.625-.045 0-.67-.597-1.389-1.326zm17.062-6.487a355.313 355.313 0 0 1-2.566-2.596c-.11-.135 4.881-5.202 5.124-5.202.327 0 5.122 4.84 5.122 5.17 0 .263-4.782 5.15-5.039 5.15-.074 0-1.262-1.135-2.64-2.522zm-15.545-3.902c-.905-.913-1.646-1.78-1.646-1.926 0-.146.77-1.028 1.712-1.961l1.711-1.696 1.795 1.704c.986.937 1.838 1.805 1.891 1.93.12.276-3.146 3.61-3.537 3.61-.154 0-1.02-.748-1.926-1.661zm-15.007-3.102-2.636-2.646 2.636-2.646 2.636-2.645 2.585 2.574c1.421 1.417 2.584 2.666 2.584 2.777 0 .234-4.795 5.232-5.02 5.232-.082 0-1.335-1.19-2.785-2.646zM3.552 241.676l36.512-36.51 17.063 17.062c-9.308 9.848-15.403 16.246-18.684 20.112.306 0 21.73 21.78 21.73 22.087 0 .35-16.454 16.805-16.805 16.805-12-13.765-27.37-27.874-39.816-39.556Zm59.395 30.821-1.306-1.326 1.382-1.382 1.383-1.383 1.382 1.383 1.383 1.382-1.307 1.326c-.718.73-1.374 1.327-1.458 1.327-.084 0-.74-.597-1.459-1.327z" style="fill:#24205b;stroke-width:.264583" transform="matrix(1.53056 0 0 1.53056 -4.266 -265.54)"/>
</svg>
